<?xml version="1.0" standalone="no"?>
<!DOCTYPE svg PUBLIC "-//W3C//DTD SVG 20010904//EN"
 "http://www.w3.org/TR/2001/REC-SVG-20010904/DTD/svg10.dtd">
<svg version="1.0" xmlns="http://www.w3.org/2000/svg"
 width="256.000000pt" height="256.000000pt" viewBox="0 0 256.000000 256.000000"
 preserveAspectRatio="xMidYMid meet">
<metadata>
Created by potrace 1.11, written by Peter Selinger 2001-2013
</metadata>
<g transform="translate(0.000000,256.000000) scale(0.100000,-0.100000)"
fill="#000000" stroke="none">
<path d="M832 2541 c-173 -59 -393 -314 -419 -486 -14 -91 -7 -215 17 -308 7
-26 11 -49 9 -50 -2 -1 -52 -26 -110 -55 -162 -79 -246 -164 -289 -292 -59
-174 -3 -338 138 -407 52 -25 67 -28 162 -27 83 0 116 5 158 21 66 27 127 73
172 131 74 94 71 92 49 33 -29 -79 -46 -169 -48 -262 -5 -218 106 -425 372
-692 157 -159 135 -152 274 -87 169 79 334 217 429 360 107 160 145 286 140
460 -2 100 -13 146 -61 265 -4 11 5 1 21 -22 108 -157 234 -221 412 -210 46 3
89 10 95 16 6 6 19 11 30 11 10 0 42 24 71 53 63 63 88 126 87 222 -1 127 -38
214 -130 306 -53 52 -88 77 -176 120 -60 29 -112 54 -113 55 -2 2 4 35 12 76
20 90 25 201 13 282 -26 170 -227 409 -408 483 -63 26 -210 25 -263 -1 -99
-49 -175 -183 -182 -316 -3 -67 26 -136 124 -292 119 -190 115 -182 94 -200
-50 -41 -47 -42 -89 15 -42 55 -151 167 -162 167 -10 0 -94 -99 -131 -153 -40
-59 -43 -61 -74 -36 l-27 21 27 47 c15 25 57 93 93 151 96 151 112 189 116
265 5 92 -44 212 -115 281 -72 71 -203 94 -318 55z"/>
</g>
</svg>
